# xmcd
#
# Track frame offsets:
#	183
#	22603
#	48800
#
# Disc length: 981 seconds
# Revision: 0
# Processed by: cddbd v1.5.2PL0 Copyright (c) Steve Scherf et al.
# Submitted via: dBpowerAMP V12.0
#
DISCID=1103d303
DTITLE=The Escape Club - I’ll Be There
DYEAR=1991
DGENRE=Rock
TTITLE0=I’ll Be There [Edit]
TTITLE1=I’ll Be There [LP Version]
TTITLE2=I’ll Be There [Ghost Mix]
EXTD=
EXTT0=
EXTT1=
EXTT2=
PLAYORDER=
